<svg width="12" height="21" viewBox="0 0 12 21" fill="none" xmlns="http://www.w3.org/2000/svg">
<path d="M3.06086 10.4526L11.2243 18.614C11.4091 18.7988 11.5129 19.0495 11.5129 19.3109C11.5129 19.5722 11.4091 19.8229 11.2243 20.0077C11.0395 20.1925 10.7888 20.2964 10.5274 20.2964C10.2661 20.2964 10.0154 20.1925 9.83057 20.0077L0.972267 11.1494C0.880607 11.058 0.807885 10.9494 0.758266 10.8298C0.708647 10.7102 0.683105 10.582 0.683105 10.4526C0.683105 10.3231 0.708647 10.1949 0.758266 10.0753C0.807885 9.95576 0.880607 9.84714 0.972267 9.75571L9.83057 0.89741C10.0154 0.712593 10.2661 0.608765 10.5274 0.608765C10.7888 0.608765 11.0395 0.712593 11.2243 0.89741C11.4091 1.08223 11.5129 1.33289 11.5129 1.59426C11.5129 1.85563 11.4091 2.1063 11.2243 2.29112L3.06086 10.4526Z" fill="white"/>
</svg>
