<svg width="23" height="19" viewBox="0 0 23 19" fill="none" xmlns="http://www.w3.org/2000/svg">
<path d="M8.94055 9.4668C10.0346 9.4668 11.0838 9.01245 11.8574 8.20369C12.631 7.39494 13.0656 6.29804 13.0656 5.1543C13.0656 4.01055 12.631 2.91365 11.8574 2.1049C11.0838 1.29615 10.0346 0.841797 8.94055 0.841797C7.84653 0.841797 6.79732 1.29615 6.02374 2.1049C5.25015 2.91365 4.81555 4.01055 4.81555 5.1543C4.81555 6.29804 5.25015 7.39494 6.02374 8.20369C6.79732 9.01245 7.84653 9.4668 8.94055 9.4668ZM11.6906 5.1543C11.6906 5.91679 11.4008 6.64806 10.8851 7.18723C10.3694 7.7264 9.6699 8.0293 8.94055 8.0293C8.21121 8.0293 7.51173 7.7264 6.99601 7.18723C6.48028 6.64806 6.19055 5.91679 6.19055 5.1543C6.19055 4.3918 6.48028 3.66053 6.99601 3.12136C7.51173 2.5822 8.21121 2.2793 8.94055 2.2793C9.6699 2.2793 10.3694 2.5822 10.8851 3.12136C11.4008 3.66053 11.6906 4.3918 11.6906 5.1543ZM17.1906 16.6543C17.1906 18.0918 15.8156 18.0918 15.8156 18.0918H2.06555C2.06555 18.0918 0.690552 18.0918 0.690552 16.6543C0.690552 15.2168 2.06555 10.9043 8.94055 10.9043C15.8156 10.9043 17.1906 15.2168 17.1906 16.6543ZM15.8156 16.6485C15.8142 16.2949 15.6038 15.2312 14.6716 14.2565C13.7751 13.3193 12.0879 12.3418 8.94055 12.3418C5.7918 12.3418 4.10605 13.3193 3.20955 14.2565C2.2773 15.2312 2.0683 16.2949 2.06555 16.6485H15.8156Z" fill="black"/>
<path fill-rule="evenodd" clip-rule="evenodd" d="M22.4898 5.36417C22.5538 5.43094 22.6046 5.51026 22.6393 5.59758C22.674 5.6849 22.6918 5.77851 22.6918 5.87305C22.6918 5.96759 22.674 6.0612 22.6393 6.14852C22.6046 6.23584 22.5538 6.31516 22.4898 6.38192L18.3648 10.6944C18.301 10.7614 18.2251 10.8145 18.1416 10.8507C18.058 10.8869 17.9685 10.9056 17.8781 10.9056C17.7876 10.9056 17.6981 10.8869 17.6146 10.8507C17.531 10.8145 17.4552 10.7614 17.3913 10.6944L15.3288 8.53817C15.1997 8.40321 15.1272 8.22016 15.1272 8.0293C15.1272 7.83843 15.1997 7.65539 15.3288 7.52042C15.4579 7.38546 15.633 7.30964 15.8156 7.30964C15.9981 7.30964 16.1732 7.38546 16.3023 7.52042L17.8781 9.16924L21.5163 5.36417C21.5802 5.29724 21.656 5.24413 21.7396 5.2079C21.8231 5.17167 21.9126 5.15302 22.0031 5.15302C22.0935 5.15302 22.183 5.17167 22.2666 5.2079C22.3501 5.24413 22.426 5.29724 22.4898 5.36417Z" fill="black"/>
</svg>
