<svg width="19" height="19" viewBox="0 0 19 19" fill="none" xmlns="http://www.w3.org/2000/svg">
<path d="M18 10.238C18.3758 9.74147 18.5838 9.1331 18.5838 8.50013C18.5838 7.49587 18.0224 6.5453 17.1188 6.01521C16.8861 5.87877 16.6213 5.80695 16.3516 5.8072H10.9881L11.1223 3.05836C11.1536 2.39407 10.9188 1.76334 10.4625 1.28246C10.2386 1.04544 9.96841 0.856853 9.66873 0.728362C9.36904 0.599872 9.04619 0.534204 8.72013 0.535417C7.55707 0.535417 6.52821 1.31824 6.21955 2.43881L4.29827 9.39479H1.40628C1.01039 9.39479 0.690552 9.71463 0.690552 10.1105V18.2519C0.690552 18.6478 1.01039 18.9677 1.40628 18.9677H14.8553C15.061 18.9677 15.2623 18.9274 15.448 18.8469C16.5126 18.3928 17.1993 17.3528 17.1993 16.1987C17.1993 15.9169 17.159 15.6395 17.0785 15.3711C17.4543 14.8746 17.6623 14.2662 17.6623 13.6332C17.6623 13.3514 17.622 13.0741 17.5415 12.8057C17.9172 12.3091 18.1252 11.7008 18.1252 11.0678C18.1208 10.786 18.0805 10.5064 18 10.238ZM2.30094 17.3573V11.0052H4.11263V17.3573H2.30094ZM16.535 9.46189L16.0452 9.88686L16.3561 10.455C16.4585 10.6421 16.5116 10.8522 16.5104 11.0656C16.5104 11.4346 16.3493 11.7858 16.072 12.0273L15.5822 12.4523L15.8931 13.0204C15.9955 13.2075 16.0486 13.4177 16.0474 13.631C16.0474 14.0001 15.8864 14.3512 15.609 14.5928L15.1192 15.0177L15.4301 15.5858C15.5325 15.773 15.5856 15.9831 15.5844 16.1964C15.5844 16.6975 15.2892 17.1493 14.8329 17.355H5.54408V10.9336L7.76955 2.87048C7.82694 2.66381 7.95012 2.48149 8.12044 2.35112C8.29077 2.22076 8.49894 2.14946 8.71342 2.14804C8.8834 2.14804 9.05115 2.19725 9.18535 2.2979C9.40678 2.46341 9.52532 2.71392 9.5119 2.98008L9.29718 7.41759H16.3292C16.7273 7.66139 16.9734 8.07293 16.9734 8.50013C16.9734 8.86918 16.8123 9.2181 16.535 9.46189Z" fill="black"/>
</svg>
