<svg width="60" height="60" viewBox="0 0 60 60" fill="none" xmlns="http://www.w3.org/2000/svg">
<path d="M30.0675 0.858765C13.9869 0.858765 0.95105 13.8946 0.95105 29.9752C0.95105 46.0558 13.9869 59.0917 30.0675 59.0917C46.1481 59.0917 59.184 46.0558 59.184 29.9752C59.184 13.8946 46.1481 0.858765 30.0675 0.858765ZM30.0675 13.1103C34.7489 13.1103 38.9828 15.0203 42.0383 18.1005L46.9324 14.6173V30.3271L31.898 25.3156L36.3266 22.1629C34.6122 20.7838 32.4394 19.9558 30.0676 19.9558C24.534 19.9558 20.0481 24.4416 20.0481 29.9753C20.0481 35.509 24.5339 39.9947 30.0675 39.9947C33.7812 39.9947 37.0163 37.9707 38.747 34.969L44.6825 38.3811C41.7698 43.4341 36.3189 46.8402 30.0675 46.8402C20.7535 46.8402 13.2026 39.2891 13.2026 29.9752C13.2026 20.6614 20.7535 13.1103 30.0675 13.1103Z" fill="white" fill-opacity="0.6"/>
</svg>
