<svg width="20" height="18" viewBox="0 0 20 18" fill="none" xmlns="http://www.w3.org/2000/svg">
<path d="M17.8833 0.426329C17.6458 0.443611 17.4126 0.499335 17.193 0.591329H17.19C16.9791 0.674938 15.9765 1.09669 14.4523 1.73597L8.99033 4.03634C5.07104 5.68634 1.21834 7.31118 1.21834 7.31118L1.26421 7.29342C1.26421 7.29342 0.998586 7.38073 0.721121 7.57088C0.549705 7.67996 0.402201 7.82268 0.287535 7.99041C0.151391 8.19019 0.0418851 8.49577 0.0825801 8.81171C0.149172 9.34592 0.495449 9.6663 0.744058 9.84314C0.995627 10.0222 1.23536 10.1058 1.23536 10.1058H1.24128L4.85425 11.323C5.01629 11.8431 5.95523 14.93 6.1809 15.6411C6.31409 16.0658 6.44357 16.3314 6.60561 16.5341C6.68404 16.6377 6.77579 16.7243 6.88604 16.7938C6.94335 16.8272 7.00446 16.8535 7.06805 16.8723L7.03106 16.8634C7.04216 16.8664 7.05104 16.8752 7.05917 16.8782C7.08877 16.8863 7.10875 16.8893 7.14648 16.8952C7.71843 17.0683 8.17792 16.7132 8.17792 16.7132L8.20381 16.6925L10.337 14.7502L13.9122 17.4931L13.9936 17.5278C14.7387 17.8549 15.4934 17.6729 15.8922 17.3517C16.294 17.0284 16.4501 16.6148 16.4501 16.6148L16.476 16.5482L19.2388 2.39449C19.3172 2.04525 19.3372 1.71821 19.2506 1.40079C19.1614 1.07954 18.9553 0.803244 18.6728 0.626104C18.4356 0.481908 18.1605 0.412307 17.8833 0.426329ZM17.8086 1.94314C17.8056 1.98976 17.8145 1.98458 17.7938 2.07411V2.08224L15.0568 16.0887C15.045 16.1087 15.025 16.1523 14.9703 16.196C14.9126 16.2419 14.8667 16.2707 14.6262 16.1753L10.2534 12.8228L7.61189 15.2304L8.16682 11.6863L15.3114 5.02708C15.6059 4.75331 15.5074 4.6956 15.5074 4.6956C15.5282 4.35968 15.0628 4.59719 15.0628 4.59719L6.05364 10.1783L6.05068 10.1635L1.73258 8.7096V8.70664L1.72148 8.70442C1.72905 8.70191 1.73646 8.69894 1.74367 8.69554L1.76735 8.68371L1.79029 8.67557C1.79029 8.67557 5.64595 7.05073 9.56524 5.40073C11.5275 4.57425 13.5045 3.74186 15.025 3.09962C15.9268 2.72005 16.8295 2.34269 17.7331 1.96756C17.7938 1.94388 17.7649 1.94388 17.8086 1.94388V1.94314Z" fill="black"/>
</svg>
